<svg width="51" height="51" viewBox="0 0 51 51" fill="none" xmlns="http://www.w3.org/2000/svg">
<path d="M25.7676 3.625C13.7363 3.625 3.89258 13.4688 3.89258 25.5C3.89258 37.5312 13.7363 47.375 25.7676 47.375C37.7988 47.375 47.6426 37.5312 47.6426 25.5C47.6426 13.4688 37.7988 3.625 25.7676 3.625ZM24.0488 13H27.4863V30.1875H24.0488V13ZM25.7676 39.5625C24.5176 39.5625 23.4238 38.4688 23.4238 37.2188C23.4238 35.9688 24.5176 34.875 25.7676 34.875C27.0176 34.875 28.1113 35.9688 28.1113 37.2188C28.1113 38.4688 27.0176 39.5625 25.7676 39.5625Z" fill="#FF000C"/>
</svg>
