<svg width="44" height="46" viewBox="0 0 44 46" fill="none" xmlns="http://www.w3.org/2000/svg">
<path d="M21.875 0.5C9.84375 0.5 0 10.5406 0 22.8125C0 35.0844 9.84375 45.125 21.875 45.125C33.9062 45.125 43.75 35.0844 43.75 22.8125C43.75 10.5406 33.9062 0.5 21.875 0.5ZM20.1562 10.0625H23.5938V27.5938H20.1562V10.0625ZM21.875 37.1562C20.625 37.1562 19.5312 36.0406 19.5312 34.7656C19.5312 33.4906 20.625 32.375 21.875 32.375C23.125 32.375 24.2188 33.4906 24.2188 34.7656C24.2188 36.0406 23.125 37.1562 21.875 37.1562Z" fill="#FF9900"/>
</svg>
