<svg width="119" height="93" viewBox="0 0 119 93" fill="none" xmlns="http://www.w3.org/2000/svg">
<path d="M114.344 0.09375H4.65625C2.32275 0.09375 0.4375 1.979 0.4375 4.3125V88.6875C0.4375 91.021 2.32275 92.9062 4.65625 92.9062H114.344C116.677 92.9062 118.562 91.021 118.562 88.6875V4.3125C118.562 1.979 116.677 0.09375 114.344 0.09375ZM36.5605 19.0781C41.2144 19.0781 44.998 22.8618 44.998 27.5156C44.998 32.1694 41.2144 35.9531 36.5605 35.9531C31.9067 35.9531 28.123 32.1694 28.123 27.5156C28.123 22.8618 31.9067 19.0781 36.5605 19.0781ZM104.311 76.7036C104.119 76.8649 103.876 76.9536 103.625 76.9541H15.3613C14.7812 76.9541 14.3066 76.4795 14.3066 75.8994C14.3066 75.6489 14.3989 75.4116 14.5571 75.2139L37.0088 48.583C37.3779 48.1348 38.0503 48.082 38.4985 48.4512C38.5381 48.4907 38.5908 48.5303 38.6304 48.583L51.7349 64.1396L72.5781 39.4204C72.9473 38.9722 73.6196 38.9194 74.0679 39.2886C74.1074 39.3281 74.1602 39.3677 74.1997 39.4204L104.469 75.2271C104.812 75.6621 104.759 76.3345 104.311 76.7036Z" fill="#FCFCFD"/>
</svg>
