<svg width="49" height="49" viewBox="0 0 49 49" fill="none" xmlns="http://www.w3.org/2000/svg">
<g opacity="0.71">
<circle cx="24.2012" cy="24.2012" r="24.2012" fill="#FF4750"/>
<path d="M42.4027 25.1867C42.4027 34.5469 30.9207 41.6904 23.1481 40.9838C15.3754 40.2772 7.53637 33.8986 7.53637 24.5383C6.23725 15.1894 16.0385 7.77344 25.4445 7.77344C34.8505 7.77344 42.933 16.076 42.4027 25.1867Z" fill="#FF000C"/>
<path d="M42.4027 25.1867C42.4027 34.5469 30.9207 41.6904 23.1481 40.9838C15.3754 40.2772 7.53637 33.8986 7.53637 24.5383C6.23725 15.1894 16.0385 7.77344 25.4445 7.77344C34.8505 7.77344 42.933 16.076 42.4027 25.1867Z" fill="#FF000C"/>
<path d="M39.4824 25.2575C39.4824 32.8657 32.4165 39.0363 23.7604 38.3297C16.0878 38.3297 11.0413 32.3387 11.0413 24.7305C9.98163 17.1316 18.4589 10.2422 26.1315 10.2422C33.8042 10.2422 39.4824 17.6493 39.4824 25.2575Z" fill="white"/>
<path d="M39.4824 25.2575C39.4824 32.8657 32.4165 39.0363 23.7604 38.3297C16.0878 38.3297 11.0413 32.3387 11.0413 24.7305C9.98163 17.1316 18.4589 10.2422 26.1315 10.2422C33.8042 10.2422 39.4824 17.6493 39.4824 25.2575Z" fill="white"/>
<path d="M34.625 25.015C34.625 30.1727 29.8127 34.3558 23.9173 33.8768C18.6917 33.8768 15.2548 29.8154 15.2548 24.6578C14.533 19.5063 20.3066 14.8359 25.5322 14.8359C30.7577 14.8359 34.625 19.8573 34.625 25.015Z" fill="#181818"/>
<path d="M34.625 25.015C34.625 30.1727 29.8127 34.3558 23.9173 33.8768C18.6917 33.8768 15.2548 29.8154 15.2548 24.6578C14.533 19.5063 20.3066 14.8359 25.5322 14.8359C30.7577 14.8359 34.625 19.8573 34.625 25.015Z" fill="#181818"/>
<path d="M28.9697 24.2036C28.793 26.3234 27.1506 28.4432 24.9067 28.4432C22.6628 28.4432 20.8438 26.4475 20.8438 24.2036C20.8438 21.9597 22.6628 20.1406 24.9067 20.1406C27.1506 20.1406 29.323 21.9071 28.9697 24.2036Z" fill="#FF000C"/>
</g>
</svg>
