<svg width="178" height="49" viewBox="0 0 178 49" fill="none" xmlns="http://www.w3.org/2000/svg">
<path d="M61.0913 37.1818H56.1152L65.1753 11H70.9305L80.0031 37.1818H75.027L68.1534 16.3693H67.9523L61.0913 37.1818ZM61.2547 26.9162H74.8259V30.7259H61.2547V26.9162Z" fill="#181818"/>
<path d="M82.685 37.1818V11H92.3357C94.3127 11 95.9714 11.3494 97.3118 12.0483C98.6605 12.7472 99.6783 13.7273 100.365 14.9886C101.061 16.2415 101.408 17.7031 101.408 19.3736C101.408 21.0526 101.056 22.5099 100.353 23.7457C99.6574 24.973 98.6312 25.9233 97.2741 26.5966C95.9169 27.2614 94.2499 27.5938 92.2728 27.5938H85.3993V23.6562H91.6445C92.8006 23.6562 93.7472 23.4943 94.4844 23.1705C95.2216 22.8381 95.7662 22.3565 96.118 21.7259C96.4782 21.0866 96.6583 20.3026 96.6583 19.3736C96.6583 18.4446 96.4782 17.652 96.118 16.9957C95.7578 16.331 95.2091 15.8281 94.4719 15.4872C93.7347 15.1378 92.7838 14.9631 91.6194 14.9631H87.347V37.1818H82.685ZM95.9798 25.3182L102.351 37.1818H97.1484L90.8906 25.3182H95.9798Z" fill="#181818"/>
<path d="M121.214 11H125.876V28.1051C125.876 29.9801 125.441 31.6293 124.57 33.0526C123.707 34.4759 122.492 35.5881 120.925 36.3892C119.359 37.1818 117.528 37.5781 115.434 37.5781C113.331 37.5781 111.497 37.1818 109.93 36.3892C108.364 35.5881 107.149 34.4759 106.286 33.0526C105.423 31.6293 104.992 29.9801 104.992 28.1051V11H109.654V27.7088C109.654 28.7997 109.888 29.7713 110.357 30.6236C110.835 31.4759 111.505 32.1449 112.368 32.6307C113.231 33.108 114.253 33.3466 115.434 33.3466C116.615 33.3466 117.637 33.108 118.5 32.6307C119.371 32.1449 120.042 31.4759 120.511 30.6236C120.98 29.7713 121.214 28.7997 121.214 27.7088V11Z" fill="#181818"/>
<path d="M130.236 11H135.941L143.581 29.9716H143.882L151.523 11H157.228V37.1818H152.754V19.1946H152.515L145.403 37.1051H142.06L134.948 19.1562H134.709V37.1818H130.236V11Z" fill="#181818"/>
<path d="M152.754 37.1818V11H169.492V14.9759H157.416V22.0838H168.625V26.0597H157.416V33.206L169.492 33.0526V37.1051L152.754 37.1818Z" fill="#181818"/>
<ellipse cx="2.94881" cy="3" rx="2.94881" ry="3" transform="matrix(1 0 0 -1 172.102 38)" fill="#FF000C"/>
<g opacity="0.71">
<circle cx="24.2012" cy="24.2012" r="24.2012" fill="#FF4750"/>
<path d="M42.4027 25.1867C42.4027 34.5469 30.9207 41.6904 23.1481 40.9838C15.3754 40.2772 7.53637 33.8986 7.53637 24.5383C6.23725 15.1894 16.0385 7.77344 25.4445 7.77344C34.8505 7.77344 42.933 16.076 42.4027 25.1867Z" fill="#FF000C"/>
<path d="M42.4027 25.1867C42.4027 34.5469 30.9207 41.6904 23.1481 40.9838C15.3754 40.2772 7.53637 33.8986 7.53637 24.5383C6.23725 15.1894 16.0385 7.77344 25.4445 7.77344C34.8505 7.77344 42.933 16.076 42.4027 25.1867Z" fill="#FF000C"/>
<path d="M39.4824 25.2575C39.4824 32.8657 32.4165 39.0363 23.7604 38.3297C16.0878 38.3297 11.0413 32.3387 11.0413 24.7305C9.98163 17.1316 18.4589 10.2422 26.1315 10.2422C33.8042 10.2422 39.4824 17.6493 39.4824 25.2575Z" fill="white"/>
<path d="M39.4824 25.2575C39.4824 32.8657 32.4165 39.0363 23.7604 38.3297C16.0878 38.3297 11.0413 32.3387 11.0413 24.7305C9.98163 17.1316 18.4589 10.2422 26.1315 10.2422C33.8042 10.2422 39.4824 17.6493 39.4824 25.2575Z" fill="white"/>
<path d="M34.625 25.015C34.625 30.1727 29.8127 34.3558 23.9173 33.8768C18.6917 33.8768 15.2548 29.8154 15.2548 24.6578C14.533 19.5063 20.3066 14.8359 25.5322 14.8359C30.7577 14.8359 34.625 19.8573 34.625 25.015Z" fill="#181818"/>
<path d="M34.625 25.015C34.625 30.1727 29.8127 34.3558 23.9173 33.8768C18.6917 33.8768 15.2548 29.8154 15.2548 24.6578C14.533 19.5063 20.3066 14.8359 25.5322 14.8359C30.7577 14.8359 34.625 19.8573 34.625 25.015Z" fill="#181818"/>
<path d="M28.9697 24.2036C28.793 26.3234 27.1506 28.4432 24.9067 28.4432C22.6628 28.4432 20.8438 26.4475 20.8438 24.2036C20.8438 21.9597 22.6628 20.1406 24.9067 20.1406C27.1506 20.1406 29.323 21.9071 28.9697 24.2036Z" fill="#FF000C"/>
</g>
</svg>
